<svg width="20" height="20" viewBox="0 0 20 20" fill="none" xmlns="http://www.w3.org/2000/svg">
<path d="M10.5 20H9.5C9.5 15.145 9.5 12.707 8.396 11.604C7.292 10.501 4.855 10.5 0 10.5V9.5C4.855 9.5 7.293 9.5 8.396 8.396C9.499 7.292 9.5 4.855 9.5 0H10.5C10.5 4.855 10.5 7.293 11.604 8.396C12.708 9.499 15.145 9.5 20 9.5V10.5C15.145 10.5 12.707 10.5 11.604 11.604C10.501 12.708 10.5 15.145 10.5 20ZM7.539 10C8.863 10.405 9.595 11.137 10 12.461C10.405 11.137 11.137 10.405 12.461 10C11.137 9.595 10.405 8.863 10 7.539C9.595 8.863 8.863 9.595 7.539 10Z" fill="black"/>
</svg>
